# xmcd
#
# Track frame offsets:
#	150
#	30758
#	68037
#	115782
#	128514
#	153207
#	192143
#	234902
#
# Disc length: 3328 seconds
#
# Revision: 1
# Processed by: cddbd v1.5.2PL0 Copyright (c) Steve Scherf et al.
# Submitted via: audiograbber 1.83.01
#
DISCID=4f0cfe08
DTITLE=Grateful Dead - 95-03-26 The Omni, Atlanta GA
DYEAR=1900
DGENRE=
TTITLE0=Cold Rain and Snow
TTITLE1=Little Red Rooster
TTITLE2=Ramble On Rose
TTITLE3=Me and My Uncle
TTITLE4=Big River
TTITLE5=Lazy River Road
TTITLE6=Eternity
TTITLE7=Don't Ease Me In
EXTD=
EXTT0=
EXTT1=
EXTT2=
EXTT3=
EXTT4=
EXTT5=
EXTT6=
EXTT7=
PLAYORDER=
